<svg width="183" height="40" viewBox="0 0 183 40" fill="none" xmlns="http://www.w3.org/2000/svg">
<path d="M72.016 29H67.312L61.048 19.544V29H56.344V12.08H61.048L67.312 21.656V12.08H72.016V29ZM80.9596 29.168C79.6156 29.168 78.4076 28.888 77.3356 28.328C76.2796 27.768 75.4476 26.968 74.8396 25.928C74.2316 24.888 73.9276 23.664 73.9276 22.256C73.9276 20.864 74.2316 19.648 74.8396 18.608C75.4636 17.568 76.3036 16.768 77.3596 16.208C78.4316 15.648 79.6396 15.368 80.9836 15.368C82.3276 15.368 83.5276 15.648 84.5836 16.208C85.6556 16.768 86.4956 17.568 87.1036 18.608C87.7276 19.648 88.0396 20.864 88.0396 22.256C88.0396 23.648 87.7276 24.872 87.1036 25.928C86.4956 26.968 85.6556 27.768 84.5836 28.328C83.5116 28.888 82.3036 29.168 80.9596 29.168ZM80.9596 25.088C81.6156 25.088 82.1596 24.848 82.5916 24.368C83.0396 23.872 83.2636 23.168 83.2636 22.256C83.2636 21.344 83.0396 20.648 82.5916 20.168C82.1596 19.688 81.6236 19.448 80.9836 19.448C80.3436 19.448 79.8076 19.688 79.3756 20.168C78.9436 20.648 78.7276 21.344 78.7276 22.256C78.7276 23.184 78.9356 23.888 79.3516 24.368C79.7676 24.848 80.3036 25.088 80.9596 25.088ZM114.299 12.08V29H109.595V19.664L106.403 29H102.467L99.2511 19.592V29H94.5471V12.08H100.235L104.483 23.072L108.635 12.08H114.299ZM123.241 29.168C121.897 29.168 120.689 28.888 119.617 28.328C118.561 27.768 117.729 26.968 117.121 25.928C116.513 24.888 116.209 23.664 116.209 22.256C116.209 20.864 116.513 19.648 117.121 18.608C117.745 17.568 118.585 16.768 119.641 16.208C120.713 15.648 121.921 15.368 123.265 15.368C124.609 15.368 125.809 15.648 126.865 16.208C127.937 16.768 128.777 17.568 129.385 18.608C130.009 19.648 130.321 20.864 130.321 22.256C130.321 23.648 130.009 24.872 129.385 25.928C128.777 26.968 127.937 27.768 126.865 28.328C125.793 28.888 124.585 29.168 123.241 29.168ZM123.241 25.088C123.897 25.088 124.441 24.848 124.873 24.368C125.321 23.872 125.545 23.168 125.545 22.256C125.545 21.344 125.321 20.648 124.873 20.168C124.441 19.688 123.905 19.448 123.265 19.448C122.625 19.448 122.089 19.688 121.657 20.168C121.225 20.648 121.009 21.344 121.009 22.256C121.009 23.184 121.217 23.888 121.633 24.368C122.049 24.848 122.585 25.088 123.241 25.088ZM141.043 15.416C142.595 15.416 143.827 15.936 144.739 16.976C145.651 18 146.107 19.392 146.107 21.152V29H141.403V21.776C141.403 21.008 141.203 20.408 140.803 19.976C140.403 19.528 139.867 19.304 139.195 19.304C138.491 19.304 137.939 19.528 137.539 19.976C137.139 20.408 136.939 21.008 136.939 21.776V29H132.235V15.536H136.939V17.456C137.355 16.848 137.915 16.36 138.619 15.992C139.323 15.608 140.131 15.416 141.043 15.416ZM161.552 22.112C161.552 22.48 161.528 22.848 161.48 23.216H152.576C152.624 23.952 152.824 24.504 153.176 24.872C153.544 25.224 154.008 25.4 154.568 25.4C155.352 25.4 155.912 25.048 156.248 24.344H161.264C161.056 25.272 160.648 26.104 160.04 26.84C159.448 27.56 158.696 28.128 157.784 28.544C156.872 28.96 155.864 29.168 154.76 29.168C153.432 29.168 152.248 28.888 151.208 28.328C150.184 27.768 149.376 26.968 148.784 25.928C148.208 24.888 147.92 23.664 147.92 22.256C147.92 20.848 148.208 19.632 148.784 18.608C149.36 17.568 150.16 16.768 151.184 16.208C152.224 15.648 153.416 15.368 154.76 15.368C156.088 15.368 157.264 15.64 158.288 16.184C159.312 16.728 160.112 17.512 160.688 18.536C161.264 19.544 161.552 20.736 161.552 22.112ZM156.752 20.936C156.752 20.36 156.56 19.912 156.176 19.592C155.792 19.256 155.312 19.088 154.736 19.088C154.16 19.088 153.688 19.248 153.32 19.568C152.952 19.872 152.712 20.328 152.6 20.936H156.752ZM177.973 15.536L169.429 35.408H164.317L167.533 28.424L162.013 15.536H167.245L170.077 23.168L172.813 15.536H177.973Z" fill="white"/>
<path d="M34.1422 5.85781C30.3647 2.08031 25.3422 0 20 0C14.6578 0 9.63531 2.08031 5.85781 5.85781C2.08031 9.63531 0 14.6578 0 20C0 25.3422 2.08039 30.3646 5.85781 34.1422C9.63523 37.9198 14.6578 40 20 40C25.3422 40 30.3647 37.9197 34.1422 34.1422C37.9197 30.3647 40 25.3422 40 20C40 14.6578 37.9196 9.63539 34.1422 5.85781Z" fill="#33CC95"/>
<g clip-path="url(#clip0)">
<path d="M20.5714 8V33.1429" stroke="white" stroke-width="2" stroke-linecap="round" stroke-linejoin="round"/>
<path d="M26.2857 12.5714H17.7143C16.6534 12.5714 15.636 12.9928 14.8859 13.743C14.1357 14.4931 13.7143 15.5105 13.7143 16.5714C13.7143 17.6323 14.1357 18.6497 14.8859 19.3998C15.636 20.15 16.6534 20.5714 17.7143 20.5714H23.4286C24.4894 20.5714 25.5069 20.9928 26.257 21.743C27.0072 22.4931 27.4286 23.5105 27.4286 24.5714C27.4286 25.6323 27.0072 26.6497 26.257 27.3998C25.5069 28.15 24.4894 28.5714 23.4286 28.5714H13.7143" stroke="white" stroke-width="2" stroke-linecap="round" stroke-linejoin="round"/>
</g>
<defs>
<clipPath id="clip0">
<rect width="27.4286" height="27.4286" fill="white" transform="translate(6.85715 6.85715)"/>
</clipPath>
</defs>
</svg>
